<?xml version="1.0" standalone="no"?>
<!DOCTYPE svg PUBLIC "-//W3C//DTD SVG 20010904//EN"
 "http://www.w3.org/TR/2001/REC-SVG-20010904/DTD/svg10.dtd">
<svg version="1.0" xmlns="http://www.w3.org/2000/svg"
 width="1488.000000pt" height="1488.000000pt" viewBox="0 0 1488.000000 1488.000000"
 preserveAspectRatio="xMidYMid meet">
<metadata>
Created by potrace 1.14, written by Peter Selinger 2001-2017
</metadata>
<g transform="translate(0.000000,1488.000000) scale(0.100000,-0.100000)"
fill="#000000" stroke="none">
<path d="M1818 10635 c-2 -2 -26 -7 -53 -10 -104 -14 -334 -95 -355 -125 -3
-4 -15 -10 -27 -14 -13 -4 -23 -12 -23 -17 0 -5 -5 -9 -10 -9 -11 0 -53 -36
-126 -107 -123 -120 -241 -377 -258 -564 -2 -14 -5 -30 -8 -35 -3 -5 -6 -144
-7 -309 -1 -165 -5 -302 -7 -305 -9 -8 -108 32 -152 62 -73 50 -222 215 -222
245 0 6 -4 13 -8 15 -12 5 -74 112 -128 223 -27 55 -56 106 -64 113 -35 29
-161 -18 -246 -93 -31 -27 -62 -67 -80 -102 -35 -72 -35 -72 -39 -160 -9 -184
97 -358 290 -478 81 -51 242 -120 300 -129 21 -4 41 -9 46 -12 5 -2 23 -7 41
-9 18 -3 44 -7 58 -10 26 -6 105 -15 155 -19 17 -1 35 -5 40 -8 7 -4 10 -428
9 -1235 0 -699 3 -1239 8 -1253 25 -70 116 -111 251 -115 135 -4 255 35 291
95 17 30 20 44 31 162 3 37 8 77 11 90 2 13 6 37 8 54 2 16 6 39 9 50 4 10 9
33 12 49 8 47 14 75 19 93 3 9 7 28 10 42 10 53 28 124 60 240 15 52 28 102
30 110 30 110 111 344 162 471 60 148 161 346 206 404 4 6 25 33 47 61 81 106
182 166 268 161 93 -6 142 -56 150 -155 2 -31 6 -65 7 -74 2 -9 0 -18 -4 -20
-4 -2 -5 -23 -1 -48 4 -25 4 -58 1 -75 -3 -16 -3 -49 1 -72 3 -23 2 -44 -2
-45 -4 -2 -4 -23 0 -48 4 -25 4 -58 1 -75 -3 -16 -3 -49 1 -72 3 -23 2 -44 -2
-45 -4 -2 -4 -23 0 -48 4 -25 4 -58 1 -75 -3 -16 -3 -49 1 -72 3 -24 3 -43 0
-43 -3 0 -5 -42 -4 -92 1 -51 3 -105 3 -120 0 -16 0 -40 1 -55 0 -16 0 -34 0
-40 -1 -17 -2 -80 -3 -188 0 -101 44 -335 64 -335 4 0 8 -6 8 -14 0 -18 36
-81 70 -121 119 -141 263 -206 470 -211 231 -7 421 74 610 259 60 58 127 140
166 201 16 25 32 46 36 46 4 0 20 -19 37 -42 34 -50 119 -138 180 -188 24 -19
48 -40 55 -45 43 -39 217 -134 301 -163 17 -5 39 -13 50 -18 11 -4 25 -8 32
-10 6 -1 27 -7 45 -12 18 -6 51 -14 73 -17 22 -4 61 -10 87 -14 53 -9 236 -7
313 3 28 4 77 13 110 21 33 9 70 18 82 20 12 3 59 21 105 40 405 171 681 563
744 1060 3 22 7 92 9 155 3 63 8 116 13 118 17 5 169 109 232 157 66 50 175
155 223 213 15 19 28 30 28 25 1 -4 2 -373 3 -819 1 -742 3 -812 18 -836 41
-62 148 -98 278 -93 114 4 152 13 212 51 48 31 66 66 73 145 18 195 31 316 41
384 9 63 44 246 54 285 5 19 12 49 15 67 3 18 9 42 14 55 5 13 9 26 9 31 0 4
8 33 17 65 10 31 18 64 20 73 2 8 10 32 19 52 8 21 15 38 15 40 -2 11 17 67
29 85 8 12 12 22 8 22 -12 0 57 162 126 298 101 199 220 340 335 397 79 40
181 42 232 6 67 -48 64 -18 67 -826 1 -401 4 -743 7 -760 3 -16 11 -50 17 -75
6 -25 14 -56 17 -69 10 -42 84 -163 127 -209 22 -24 60 -58 84 -74 50 -35 180
-90 193 -82 5 3 9 1 9 -3 0 -11 17 -13 160 -18 63 -2 133 0 155 6 22 5 51 12
65 15 141 30 370 193 483 344 l44 58 60 -61 c80 -83 115 -113 203 -173 64 -44
212 -122 245 -129 5 -1 22 -7 38 -13 15 -7 38 -14 50 -16 12 -2 35 -9 51 -15
16 -7 31 -9 34 -7 2 3 12 1 22 -4 9 -5 39 -12 66 -15 27 -4 65 -9 84 -11 55
-8 269 -8 335 0 217 26 407 94 585 212 84 55 272 238 310 302 14 23 28 42 32
42 8 0 28 -66 28 -92 0 -9 4 -20 10 -23 6 -3 10 -14 10 -24 0 -19 21 -71 43
-106 83 -134 139 -188 242 -235 128 -58 326 -76 434 -38 54 18 153 70 177 92
7 6 27 22 45 36 38 29 149 144 163 168 5 10 16 24 25 32 51 52 203 319 265
468 21 50 40 92 41 92 1 0 1 -207 1 -459 l0 -459 -60 -12 c-95 -18 -319 -78
-410 -110 -249 -88 -453 -224 -596 -397 -86 -104 -163 -272 -188 -411 -12 -69
-8 -244 8 -302 7 -25 13 -52 15 -60 11 -56 80 -193 128 -253 49 -62 133 -142
183 -175 60 -39 196 -96 276 -116 82 -21 112 -23 253 -20 137 3 210 8 210 14
0 1 8 3 19 5 104 20 203 56 285 105 29 16 54 30 57 30 3 0 11 6 19 13 7 6 32
28 56 47 24 19 57 50 73 69 17 19 36 39 43 46 21 22 99 149 122 200 30 64 70
186 77 233 3 21 7 42 9 49 13 40 19 161 19 405 1 275 1 278 22 278 32 0 133
-55 187 -101 95 -82 215 -254 302 -434 26 -55 55 -108 63 -117 22 -26 68 -22
138 11 160 75 245 208 238 371 -5 121 -65 243 -169 345 -56 55 -136 115 -154
115 -6 0 -11 5 -11 10 0 6 -4 10 -10 10 -5 0 -38 14 -72 30 -34 17 -65 30 -69
30 -4 0 -20 5 -36 12 -15 6 -37 13 -47 15 -11 2 -46 10 -77 18 -32 9 -71 17
-86 19 -83 12 -184 24 -200 25 -8 1 -11 312 -12 1251 l0 1250 -21 30 c-61 86
-290 124 -450 75 -59 -18 -129 -78 -131 -111 -1 -11 -2 -89 -4 -174 -2 -141
-11 -283 -21 -333 -2 -11 -6 -45 -10 -76 -3 -31 -8 -60 -11 -64 -2 -4 -7 -24
-9 -43 -14 -114 -111 -456 -174 -609 -36 -89 -46 -111 -53 -116 -5 -3 -8 -10
-8 -15 2 -23 -132 -264 -151 -272 -5 -2 -8 -7 -8 -12 0 -4 -15 -25 -32 -46
-135 -156 -231 -207 -320 -170 -53 23 -74 57 -95 156 -3 14 -6 419 -7 900 -1
685 -4 880 -14 897 -15 28 -74 73 -93 73 -8 0 -19 4 -25 9 -21 20 -211 32
-284 19 -90 -18 -162 -60 -178 -106 -6 -18 -9 -291 -8 -732 l1 -703 -35 -51
c-78 -114 -220 -257 -335 -338 -72 -50 -246 -146 -277 -152 -7 -2 -44 -12 -83
-24 -100 -31 -118 -34 -237 -37 -129 -4 -222 14 -328 64 -19 9 -38 21 -42 26
-4 6 -8 7 -8 2 0 -17 -147 105 -191 160 -48 60 -117 173 -105 173 2 0 21 -6
43 -14 97 -34 262 -39 393 -12 103 21 263 97 345 164 141 115 229 215 282 322
9 19 21 38 26 41 5 3 9 10 9 15 0 5 5 20 10 34 77 203 90 393 39 604 -12 49
-27 96 -34 104 -6 8 -11 18 -10 21 4 13 -10 51 -19 51 -5 0 -6 5 -3 10 3 6 1
10 -4 10 -6 0 -11 4 -11 10 0 19 -74 126 -124 179 -53 56 -139 121 -216 163
-95 52 -254 93 -362 93 -43 0 -78 4 -78 8 0 5 -5 5 -11 1 -6 -3 -29 -8 -52
-10 -23 -3 -53 -7 -67 -10 -14 -3 -34 -6 -46 -8 -11 -2 -25 -6 -31 -9 -5 -3
-20 -8 -34 -10 -34 -7 -105 -36 -169 -70 -186 -100 -336 -254 -442 -455 -52
-100 -120 -303 -142 -427 -3 -16 -8 -41 -11 -55 -32 -157 -34 -402 -4 -595 16
-101 64 -274 82 -291 16 -16 5 -42 -30 -72 -21 -18 -45 -38 -53 -45 -45 -39
-129 -83 -196 -103 -151 -44 -248 -2 -282 121 -7 28 -11 262 -16 895 -2 300
-6 563 -10 585 -53 312 -311 537 -616 537 -79 1 -140 -7 -140 -16 0 -5 -3 -7
-6 -3 -14 13 -236 -76 -254 -102 -3 -5 -10 -10 -16 -12 -56 -20 -304 -279
-304 -318 0 -6 -4 -11 -8 -11 -5 0 -14 -10 -20 -22 -6 -13 -25 -45 -42 -73
-26 -43 -60 -109 -65 -125 0 -3 -12 -30 -27 -60 -14 -30 -31 -73 -38 -95 -7
-22 -16 -43 -19 -48 -4 -4 -7 147 -6 335 0 189 -3 354 -8 368 -12 35 -46 70
-87 88 -174 75 -427 33 -495 -81 -14 -24 -25 -49 -25 -56 0 -23 -65 -147 -109
-206 -59 -80 -122 -146 -202 -210 -87 -71 -246 -172 -254 -163 -1 2 -27 53
-57 115 -75 152 -137 245 -233 351 -80 88 -147 147 -234 205 -108 73 -242 132
-366 163 -150 37 -341 38 -495 3 -25 -6 -52 -12 -60 -14 -40 -8 -149 -49 -201
-76 -33 -16 -61 -29 -64 -29 -6 0 -134 -86 -174 -117 -61 -47 -194 -185 -240
-249 -84 -118 -172 -311 -212 -464 -33 -129 -51 -270 -51 -410 -1 -121 2 -164
17 -265 11 -70 14 -81 24 -107 6 -16 9 -28 7 -28 -2 0 7 -30 19 -67 l22 -68
-71 -70 c-78 -78 -161 -138 -247 -178 -129 -60 -262 -50 -307 24 -45 72 -45
69 -47 774 -2 575 -5 702 -19 805 -17 122 -81 259 -163 345 -36 40 -108 95
-122 95 -6 0 -11 5 -11 10 0 6 -3 9 -7 8 -5 -1 -26 6 -47 15 -71 31 -155 45
-259 42 -278 -6 -495 -144 -682 -434 -40 -62 -164 -305 -171 -336 -3 -12 -51
-129 -70 -172 -8 -17 -14 -36 -14 -42 0 -6 -3 -11 -7 -11 -9 0 -10 976 -2 985
3 2 22 7 43 11 53 8 74 13 196 44 47 12 106 28 131 36 25 9 52 17 60 18 8 2
23 7 34 11 11 5 43 17 70 27 54 21 177 79 185 88 3 3 21 14 40 24 100 54 239
176 319 281 17 22 35 45 41 52 5 7 10 14 10 17 0 3 13 28 30 56 16 27 27 50
25 50 -3 0 1 10 9 23 15 24 53 152 61 208 8 60 5 227 -5 253 -5 14 -8 26 -6
26 7 0 -21 94 -44 150 -50 118 -154 251 -253 324 -91 67 -242 133 -347 152
-33 6 -326 14 -332 9z m239 -319 c59 -13 143 -78 171 -131 29 -57 41 -127 38
-220 -2 -49 -6 -99 -9 -110 -16 -63 -29 -110 -37 -124 -4 -9 -14 -29 -21 -46
-18 -39 -62 -109 -71 -113 -5 -2 -8 -8 -8 -14 0 -31 -167 -203 -263 -272 -98
-70 -288 -158 -305 -141 -4 4 -2 442 3 550 3 61 14 145 30 224 4 20 13 52 30
109 3 7 4 13 4 15 -3 8 69 128 94 157 86 100 219 145 344 116z m2973 -1882 c0
11 116 -36 160 -64 78 -50 185 -150 196 -182 3 -10 9 -18 13 -18 10 0 86 -145
105 -201 8 -24 24 -76 34 -116 l20 -71 -25 -5 c-42 -8 -246 -6 -298 3 -89 16
-107 21 -178 45 -252 88 -388 272 -337 455 22 78 126 154 217 159 26 1 49 4
52 6 2 2 12 0 22 -6 11 -5 19 -8 19 -5z m5450 -36 c51 -28 70 -43 70 -55 0 -7
4 -13 9 -13 12 0 45 -57 60 -103 36 -108 31 -253 -14 -397 -1 -3 -5 -14 -9
-25 -4 -11 -13 -33 -18 -50 -19 -52 -87 -172 -136 -237 -112 -151 -295 -290
-424 -321 -27 -7 -32 -2 -43 50 -2 10 -9 41 -15 68 -6 28 -13 74 -15 103 -1
29 -4 55 -6 57 -10 9 2 272 16 360 57 349 247 594 450 580 28 -1 61 -9 75 -17z
m-6110 -594 c0 -22 105 -161 164 -218 150 -145 335 -229 601 -273 56 -10 287
-9 367 0 67 8 67 8 62 -15 -5 -25 -11 -55 -19 -106 -16 -94 -83 -260 -141
-347 -116 -176 -274 -267 -466 -267 -31 0 -117 11 -138 17 -3 1 -18 5 -35 10
-113 30 -235 135 -317 270 -38 63 -85 163 -93 199 -3 11 -12 46 -20 76 -24 84
-30 142 -30 305 0 127 5 200 19 285 2 8 6 37 11 63 7 43 9 46 21 30 7 -10 14
-23 14 -29z m8835 -2333 c-3 -297 -9 -396 -31 -491 -9 -36 -17 -72 -19 -80
-20 -85 -93 -213 -150 -263 -82 -72 -220 -101 -322 -67 -137 45 -202 154 -197
334 5 207 113 421 301 594 103 95 111 102 123 102 6 0 10 3 10 8 0 8 2 9 102
59 67 33 156 69 174 69 8 1 10 -79 9 -265z"/>
</g>
</svg>
